<?xml version="1.0" encoding="UTF-8"?>
<svg xmlns="http://www.w3.org/2000/svg" xmlns:xlink="http://www.w3.org/1999/xlink" width="150px" height="30px" viewBox="0 0 150 30" version="1.1">
<g id="surface1">
<path style=" stroke:none;fill-rule:nonzero;fill:rgb(11.764706%,10.588235%,11.372549%);fill-opacity:1;" d="M 34.414062 18.566406 L 32.683594 18.414062 C 31.324219 18.304688 30.800781 17.753906 30.800781 16.832031 C 30.800781 15.734375 31.632812 15.050781 33.207031 15.050781 C 34.324219 15.050781 35.3125 15.316406 36.078125 15.910156 L 37.109375 14.875 C 36.144531 14.085938 34.765625 13.710938 33.230469 13.710938 C 30.933594 13.710938 29.265625 14.898438 29.265625 16.875 C 29.265625 18.65625 30.382812 19.597656 32.488281 19.773438 L 34.261719 19.929688 C 35.507812 20.039062 36.058594 20.566406 36.058594 21.511719 C 36.058594 22.785156 34.960938 23.421875 33.1875 23.421875 C 31.851562 23.421875 30.691406 23.070312 29.835938 22.167969 L 28.785156 23.222656 C 29.964844 24.367188 31.390625 24.785156 33.207031 24.785156 C 35.8125 24.785156 37.589844 23.574219 37.589844 21.488281 C 37.589844 19.46875 36.296875 18.742188 34.410156 18.566406 Z M 47.898438 13.710938 C 46.167969 13.710938 45.078125 14.050781 44.125 15.265625 C 44.113281 15.28125 45.160156 16.304688 45.160156 16.304688 C 45.792969 15.402344 46.496094 15.074219 47.875 15.074219 C 49.847656 15.074219 50.632812 15.863281 50.632812 17.445312 L 50.632812 18.476562 L 47.394531 18.476562 C 44.984375 18.476562 43.671875 19.710938 43.671875 21.597656 C 43.644531 22.410156 43.9375 23.199219 44.480469 23.796875 C 45.160156 24.5 46.035156 24.785156 47.527344 24.785156 C 48.972656 24.785156 49.757812 24.5 50.636719 23.621094 L 50.636719 24.652344 L 52.214844 24.652344 L 52.214844 17.3125 C 52.214844 14.964844 50.789062 13.710938 47.898438 13.710938 Z M 50.636719 20.832031 C 50.636719 21.730469 50.460938 22.347656 50.089844 22.699219 C 49.410156 23.359375 48.597656 23.425781 47.679688 23.425781 C 45.96875 23.425781 45.203125 22.832031 45.203125 21.578125 C 45.203125 20.324219 45.992188 19.667969 47.613281 19.667969 L 50.636719 19.667969 Z M 58.386719 15.117188 C 59.417969 15.117188 60.050781 15.425781 60.863281 16.328125 C 60.863281 16.328125 61.917969 15.296875 61.910156 15.289062 C 60.804688 14.101562 59.867188 13.710938 58.390625 13.710938 C 55.671875 13.710938 53.613281 15.558594 53.613281 19.25 C 53.613281 22.941406 55.671875 24.785156 58.390625 24.785156 C 59.878906 24.785156 60.820312 24.390625 61.9375 23.183594 L 60.863281 22.148438 C 60.054688 23.050781 59.417969 23.378906 58.390625 23.378906 C 57.402344 23.417969 56.464844 22.957031 55.894531 22.148438 C 55.390625 21.445312 55.191406 20.609375 55.191406 19.25 C 55.191406 17.886719 55.390625 17.050781 55.894531 16.347656 C 56.464844 15.542969 57.402344 15.078125 58.390625 15.117188 Z M 71.894531 13.828125 L 69.929688 13.828125 L 65.042969 18.597656 L 65.050781 9.007812 L 63.472656 9.007812 L 63.472656 24.652344 L 65.050781 24.652344 L 65.042969 20.707031 L 66.953125 18.78125 L 70.570312 24.652344 L 72.519531 24.652344 L 68.046875 17.683594 Z M 79.179688 13.5625 C 77.566406 13.5625 76.472656 14.195312 75.800781 14.910156 C 74.816406 15.941406 74.5625 17.183594 74.5625 19.164062 C 74.5625 21.164062 74.816406 22.40625 75.800781 23.4375 C 76.472656 24.152344 77.5625 24.785156 79.179688 24.785156 C 80.796875 24.785156 81.910156 24.152344 82.582031 23.4375 C 83.566406 22.40625 83.820312 21.164062 83.820312 19.164062 C 83.820312 17.183594 83.566406 15.941406 82.582031 14.910156 C 81.910156 14.195312 80.796875 13.5625 79.179688 13.5625 Z M 80.460938 21.835938 C 80.117188 22.167969 79.65625 22.34375 79.179688 22.320312 C 78.710938 22.34375 78.253906 22.167969 77.921875 21.835938 C 77.355469 21.269531 77.292969 20.300781 77.292969 19.164062 C 77.292969 18.027344 77.355469 17.078125 77.921875 16.511719 C 78.253906 16.179688 78.710938 16.003906 79.179688 16.027344 C 79.65625 16.003906 80.117188 16.179688 80.460938 16.511719 C 81.027344 17.078125 81.089844 18.027344 81.089844 19.164062 C 81.089844 20.300781 81.027344 21.269531 80.460938 21.835938 Z M 91.085938 13.6875 L 88.882812 20.46875 L 86.65625 13.6875 L 83.78125 13.6875 L 87.8125 24.65625 L 89.953125 24.65625 L 93.960938 13.6875 Z M 98.601562 13.5625 C 95.769531 13.5625 93.839844 15.582031 93.839844 19.164062 C 93.839844 23.605469 96.316406 24.785156 98.898438 24.785156 C 100.871094 24.785156 101.941406 24.175781 103.054688 23.058594 L 101.394531 21.4375 C 100.703125 22.132812 100.113281 22.46875 98.917969 22.46875 C 97.386719 22.46875 96.523438 21.4375 96.523438 20.023438 L 103.367188 20.023438 L 103.367188 18.804688 C 103.367188 15.792969 101.644531 13.5625 98.601562 13.5625 Z M 96.523438 18.152344 C 96.527344 17.746094 96.613281 17.34375 96.777344 16.972656 C 97.121094 16.277344 97.828125 15.835938 98.601562 15.835938 C 99.378906 15.835938 100.085938 16.277344 100.429688 16.972656 C 100.589844 17.34375 100.675781 17.746094 100.679688 18.152344 Z M 107.394531 14.742188 L 107.394531 13.6875 L 104.726562 13.6875 L 104.726562 24.660156 L 107.457031 24.660156 L 107.457031 18.046875 C 107.457031 16.65625 108.378906 16.023438 109.21875 16.023438 C 109.773438 16.003906 110.304688 16.242188 110.660156 16.667969 L 112.722656 14.59375 C 111.96875 13.835938 111.214844 13.5625 110.140625 13.5625 C 109.101562 13.550781 108.105469 13.976562 107.394531 14.742188 Z M 113.570312 12.542969 L 113.570312 24.648438 L 116.300781 24.648438 L 116.300781 15.996094 L 118.316406 15.996094 L 118.316406 13.914062 L 116.300781 13.914062 L 116.300781 12.710938 C 116.300781 12.082031 116.613281 11.722656 117.265625 11.722656 L 118.3125 11.722656 L 118.3125 9.40625 L 116.761719 9.40625 C 114.535156 9.40625 113.570312 10.984375 113.570312 12.542969 Z M 129.546875 13.558594 C 127.933594 13.558594 126.839844 14.191406 126.167969 14.90625 C 125.183594 15.9375 124.929688 17.183594 124.929688 19.160156 C 124.929688 21.160156 125.183594 22.402344 126.167969 23.4375 C 126.839844 24.152344 127.929688 24.785156 129.546875 24.785156 C 131.164062 24.785156 132.277344 24.152344 132.949219 23.4375 C 133.933594 22.402344 134.1875 21.160156 134.1875 19.160156 C 134.1875 17.183594 133.933594 15.9375 132.949219 14.90625 C 132.277344 14.191406 131.164062 13.558594 129.546875 13.558594 Z M 130.828125 21.835938 C 130.484375 22.167969 130.023438 22.34375 129.546875 22.320312 C 129.078125 22.34375 128.621094 22.167969 128.289062 21.835938 C 127.722656 21.265625 127.660156 20.296875 127.660156 19.160156 C 127.660156 18.023438 127.722656 17.078125 128.289062 16.507812 C 128.621094 16.175781 129.078125 16 129.546875 16.023438 C 130.023438 16 130.484375 16.175781 130.828125 16.507812 C 131.394531 17.078125 131.457031 18.023438 131.457031 19.160156 C 131.457031 20.296875 131.394531 21.265625 130.828125 21.835938 Z M 147.078125 13.6875 L 145.316406 20.46875 L 143.070312 13.6875 L 141.074219 13.6875 L 138.851562 20.46875 L 137.085938 13.6875 L 134.191406 13.6875 L 137.550781 24.65625 L 139.796875 24.65625 L 142.082031 17.773438 L 144.371094 24.65625 L 146.617188 24.65625 L 149.953125 13.6875 Z M 122.339844 21.351562 L 122.339844 9.40625 L 119.613281 9.40625 L 119.613281 21.519531 C 119.613281 23.078125 120.554688 24.660156 122.800781 24.660156 L 124.355469 24.660156 L 124.355469 22.34375 L 123.304688 22.34375 C 122.613281 22.34375 122.339844 22.003906 122.339844 21.351562 Z M 41.960938 15.542969 L 43.417969 14.082031 L 40.433594 14.082031 L 40.433594 10.523438 L 38.855469 10.523438 L 38.855469 21.753906 C 38.855469 23.355469 39.777344 24.652344 41.617188 24.652344 L 42.734375 24.652344 L 42.734375 23.289062 L 41.902344 23.289062 C 40.894531 23.289062 40.433594 22.699219 40.433594 21.707031 L 40.433594 15.542969 Z M 41.960938 15.542969 "/>
<path style=" stroke:none;fill-rule:evenodd;fill:rgb(73.333333%,73.333333%,73.333333%);fill-opacity:1;" d="M 21.222656 19.355469 L 23.875 19.355469 L 23.875 30 L 0 30 L 0 19.355469 L 2.652344 19.355469 L 2.652344 27.339844 L 21.222656 27.339844 Z M 21.222656 19.355469 "/>
<path style=" stroke:none;fill-rule:nonzero;fill:rgb(96.078431%,50.196078%,14.509804%);fill-opacity:1;" d="M 5.542969 18.5625 L 18.570312 21.3125 L 19.121094 18.699219 L 6.089844 15.949219 Z M 7.269531 12.304688 L 19.335938 17.945312 L 20.460938 15.523438 L 8.390625 9.882812 Z M 10.605469 6.363281 L 20.839844 14.914062 L 22.542969 12.859375 L 12.3125 4.3125 Z M 17.210938 0.046875 L 15.074219 1.640625 L 23.019531 12.359375 L 25.15625 10.765625 Z M 5.304688 24.675781 L 18.570312 24.675781 L 18.570312 22.015625 L 5.304688 22.015625 Z M 5.304688 24.675781 "/>
</g>
</svg>
